<?xml version="1.0" standalone="no"?>
<svg
  width="1200"
  height="1200"
  viewBox="0 0 1200 1200"
  xmlns="http://www.w3.org/2000/svg"
>
  <g transform="translate(300,300)">
    <path style="fill:#c04848" d="M132,-160.6C178.6,-147.9,229.1,-119.4,244.7,-78C260.3,-36.6,240.9,17.7,213.3,59C185.7,100.3,149.9,128.6,113,154.3C76,180,38,203,-8.7,215C-55.4,227,-110.9,228,-144.8,201.3C-178.7,174.7,-191.1,120.4,-207.9,67.8C-224.8,15.1,-246,-35.8,-235.7,-79.4C-225.4,-122.9,-183.5,-158.9,-139,-172.3C-94.4,-185.6,-47.2,-176.3,-2.3,-173.2C42.7,-170.1,85.4,-173.2,132,-160.6Z" fill="#FFB4BC" />
  </g>
</svg>
  