<svg id="Layer_5" enable-background="new 0 0 64 64" height="512" viewBox="0 0 64 64" width="512" xmlns="http://www.w3.org/2000/svg"><path d="m21 18h14v13h-14z" fill="#f0bc5e"/><path d="m48 41v-1c0-2.209-1.791-4-4-4h-26l-1.8-2.4c-.755-1.007-1.941-1.6-3.2-1.6h-7c-2.209 0-4 1.791-4 4v5z" fill="#f0bc5e"/><path d="m15 37h-2v-2h2zm-4 0h-2v-2h2zm-4 0h-2v-2h2z"/><path d="m39.6 32.8-1.2-1.6 2.933-2.2-2.933-2.2 1.2-1.6 5.067 3.8z"/><path d="m21 17h14v2h-14z"/><path d="m21 21h14v2h-14z"/><path d="m21 25h14v2h-14z"/><path d="m21 29h10v2h-10z"/><path d="m33 29h2v2h-2z"/><path d="m29.64 56.769-1.28-1.538 5.078-4.231-5.078-4.231 1.28-1.538 6.922 5.769z"/><path d="m20.36 56.769-6.922-5.769 6.922-5.769 1.28 1.538-5.078 4.231 5.078 4.231z"/><path d="m16.754 50h16.492v2h-16.492z" transform="matrix(.242 -.97 .97 .242 -30.536 62.904)"/><path d="m7 53h-2v-2h2zm0-4h-2v-2h2zm0-4h-2v-2h2z"/><path d="m45 59h-2v-2h2zm0-4h-2v-2h2zm0-4h-2v-2h2z"/><path d="m55 24v34c0 1.654-1.346 3-3 3s-3-1.346-3-3v-18c0-2.757-2.243-5-5-5h-25.5l-1.5-2.001c-.939-1.252-2.435-1.999-4-1.999h-2v-16h14.414l2-2h10.586v-2h-11.414l-2 2h-13.586v-6h30.029v-2h-32.029v26h-3c-2.757 0-5 2.243-5 5v22c0 2.757 2.243 5 5 5h46c2.757 0 5-2.243 5-5v-34zm-49 37c-1.654 0-3-1.346-3-3v-22c0-1.654 1.346-3 3-3h7c.939 0 1.837.448 2.4 1.199l2.1 2.801h26.5c1.654 0 3 1.346 3 3v18c0 1.125.374 2.164 1.002 3z"/><path d="m17 9h2v2h-2z"/><path d="m21 9h2v2h-2z"/><path d="m13 9h2v2h-2z"/><path d="m17.4 17.2-5.067 3.8 5.067 3.8 1.2-1.6-2.933-2.2 2.933-2.2z"/><path d="m51 49h2v2h-2z"/><path d="m51 57h2v2h-2z"/><path d="m51 53h2v2h-2z"/><path d="m50 17c-1.654 0-3-1.346-3-3s1.346-3 3-3 3 1.346 3 3-1.346 3-3 3zm0-4c-.551 0-1 .448-1 1s.449 1 1 1 1-.448 1-1-.449-1-1-1z"/><path d="m63 10.219-2.416-.603 1.281-2.136-5.347-5.346-2.134 1.281-.603-2.415h-7.562l-.603 2.416-2.134-1.281-5.348 5.345 1.281 2.136-2.415.603v7.562l2.416.603-1.281 2.136 5.347 5.346 2.134-1.281.603 2.415h7.562l.603-2.416 2.134 1.281 5.347-5.346-1.281-2.136 2.416-.602zm-13 9.781c-3.314 0-6-2.686-6-6s2.686-6 6-6 6 2.686 6 6-2.686 6-6 6z" fill="#f0bc5e"/><path d="m50 21c-3.86 0-7-3.141-7-7s3.14-7 7-7 7 3.141 7 7-3.14 7-7 7zm0-12c-2.757 0-5 2.243-5 5s2.243 5 5 5 5-2.243 5-5-2.243-5-5-5z"/></svg>